<svg xmlns="http://www.w3.org/2000/svg" width="82.92" height="48.12">
  <defs>
    <style>
      .cls-1{fill:#1e2678}.cls-2{fill:#ed7922}.cls-3{fill:#231815}
    </style>
  </defs>
  <g id="그룹_3" data-name="그룹 3" transform="translate(-49.25 -136.8)">
    <g id="그룹_1" data-name="그룹 1" transform="translate(54.8 136.8)">
      <path id="패스_1" d="m76.9 297 .1.13.25.42c.22.37.56.87 1 1.52s1.01 1.39 1.7 2.2l.54.62.6.63.63.64c.23.2.45.43.7.64.47.43.97.87 1.52 1.28s1.12.83 1.72 1.23a25.24 25.24 0 0 0 3.99 2.12c.72.3 1.46.58 2.22.81l.57.17.59.15c.19.06.39.1.58.15s.4.1.6.13c.79.18 1.6.27 2.41.37l.61.06c.2.02.41.02.62.03l.62.02h.59-.02.67l.33-.01.3-.02.59-.03.6-.06c.82-.1 1.63-.2 2.42-.37.2-.03.4-.08.6-.13l.58-.14.59-.16.57-.17c.76-.24 1.5-.5 2.22-.8a25.38 25.38 0 0 0 3.99-2.12 26.88 26.88 0 0 0 3.25-2.52l.7-.64.63-.64.6-.63.54-.62a33.52 33.52 0 0 0 2.69-3.72l.25-.41.09-.15.01-.02a.11.11 0 0 1 .2.1l-.24.6c-.07.2-.18.44-.3.72l-.44.96a24.47 24.47 0 0 1-1.42 2.48 23.05 23.05 0 0 1-2.27 2.92 24.84 24.84 0 0 1-3.23 2.96 24.15 24.15 0 0 1-4.17 2.55c-.38.19-.78.35-1.18.53l-.6.23-.3.12-.3.11a23.2 23.2 0 0 1-2.55.74 23.91 23.91 0 0 1-2.66.46 26.36 26.36 0 0 1-2.7.16 26 26 0 0 1-2.72-.16 24.22 24.22 0 0 1-2.66-.46 23.2 23.2 0 0 1-2.54-.74l-.31-.1-.3-.12-.6-.24c-.4-.18-.8-.34-1.18-.53a24.13 24.13 0 0 1-4.17-2.55 24.86 24.86 0 0 1-3.23-2.96 22.94 22.94 0 0 1-2.27-2.92 24.43 24.43 0 0 1-1.41-2.48c-.18-.36-.33-.67-.45-.96s-.23-.52-.3-.72l-.24-.6a.11.11 0 0 1 .2-.1z" class="cls-1" data-name="패스 1" transform="translate(-76.69 -264.5)"/>
      <path id="패스_2" d="m121.25 152.42-.1-.14a15.17 15.17 0 0 1-.25-.42c-.22-.37-.56-.87-1-1.52s-1.01-1.38-1.7-2.2l-.53-.62-.6-.62-.64-.65-.69-.64c-.48-.43-.98-.87-1.53-1.28s-1.12-.83-1.72-1.23a25.3 25.3 0 0 0-3.99-2.12 24.91 24.91 0 0 0-2.22-.81l-.57-.17-.58-.16-.59-.14c-.19-.04-.4-.1-.6-.13-.78-.18-1.6-.27-2.4-.37l-.62-.06c-.2-.02-.41-.02-.62-.03l-.61-.03h-.6.02l-.67.01h-.33l-.3.02-.59.04-.61.06c-.81.1-1.63.19-2.42.36l-.59.13-.59.15-.58.15-.57.17c-.76.24-1.5.51-2.22.81a25.34 25.34 0 0 0-4 2.12 26.9 26.9 0 0 0-3.24 2.5l-.7.65-.63.64-.6.63-.54.61a33.52 33.52 0 0 0-2.69 3.72c-.1.19-.2.32-.25.42l-.09.14-.01.02a.11.11 0 0 1-.2-.1l.24-.6c.07-.2.18-.44.3-.72l.44-.96a24.56 24.56 0 0 1 1.43-2.47 23.01 23.01 0 0 1 2.27-2.93 24.9 24.9 0 0 1 3.23-2.96 24.17 24.17 0 0 1 4.17-2.54c.38-.2.78-.36 1.18-.53l.6-.24.3-.12.3-.1a23.22 23.22 0 0 1 2.55-.74 24.16 24.16 0 0 1 2.66-.46 26.47 26.47 0 0 1 2.7-.16 26.05 26.05 0 0 1 2.72.16 24.1 24.1 0 0 1 2.66.46 23.15 23.15 0 0 1 2.54.74l.31.1.3.12.6.24c.4.17.8.34 1.18.53a24.12 24.12 0 0 1 4.17 2.54 24.9 24.9 0 0 1 3.23 2.96 22.99 22.99 0 0 1 2.27 2.93 24.52 24.52 0 0 1 1.41 2.48c.18.35.33.67.45.95s.23.52.3.72l.24.6a.11.11 0 0 1-.06.15.11.11 0 0 1-.14-.05z" class="cls-2" data-name="패스 2" transform="translate(-76.68 -136.8)"/>
    </g>
    <g id="그룹_2" data-name="그룹 2" transform="translate(49.25 155.17)">
      <path id="패스_3" d="M60.23 238.64H57.5l-.8-2.47h-3.95l-.78 2.47h-2.72l4.05-11.13h2.98zm-4.1-4.4-1.2-3.74a4.84 4.84 0 0 1-.18-1h-.06a4.21 4.21 0 0 1-.2.97l-1.2 3.77z" class="cls-1" data-name="패스 3" transform="translate(-49.25 -227.51)"/>
      <path id="패스_4" d="M110.11 241.58a3.63 3.63 0 0 1-1.64.28q-2.59 0-2.59-2.69v-3.64h-1.29v-1.8h1.3V232l2.44-.7v2.41h1.78v1.8h-1.78v3.22q0 1.24.98 1.24a1.66 1.66 0 0 0 .8-.22z" class="cls-3" data-name="패스 4" transform="translate(-93.39 -230.54)"/>
      <path id="패스_5" d="M140.66 241.58a3.63 3.63 0 0 1-1.64.28q-2.6 0-2.6-2.69v-3.64h-1.28v-1.8h1.29V232l2.44-.7v2.41h1.79v1.8h-1.79v3.22q0 1.24.99 1.24a1.66 1.66 0 0 0 .8-.22z" class="cls-3" data-name="패스 5" transform="translate(-117.74 -230.54)"/>
      <path id="패스_6" d="M174.4 244.89a2.12 2.12 0 0 0-1.04-.24 1.49 1.49 0 0 0-1.25.58 2.56 2.56 0 0 0-.45 1.6v3.8h-2.45v-7.95h2.45v1.48h.03a2.12 2.12 0 0 1 2.1-1.62 1.56 1.56 0 0 1 .6.1z" class="cls-3" data-name="패스 6" transform="translate(-144.92 -239.5)"/>
      <path id="패스_7" d="M204.73 250.41h-2.32v-1.14h-.03a2.59 2.59 0 0 1-2.36 1.33 2.48 2.48 0 0 1-1.83-.65 2.35 2.35 0 0 1-.66-1.75q0-2.31 2.74-2.67l2.16-.29q0-1.3-1.41-1.3a4.82 4.82 0 0 0-2.7.85v-1.85a6.13 6.13 0 0 1 1.4-.46 7.38 7.38 0 0 1 1.62-.2q3.4 0 3.4 3.39zm-2.3-3.23v-.53l-1.44.18q-1.2.16-1.2 1.08a.9.9 0 0 0 .3.69 1.12 1.12 0 0 0 .78.27 1.45 1.45 0 0 0 1.13-.48 1.72 1.72 0 0 0 .43-1.2z" class="cls-3" data-name="패스 7" transform="translate(-167.5 -239.28)"/>
      <path id="패스_8" d="M246.83 250.12a4.85 4.85 0 0 1-2.4.48 4.05 4.05 0 0 1-2.96-1.1 3.84 3.84 0 0 1-1.13-2.87 4.23 4.23 0 0 1 1.21-3.2 4.49 4.49 0 0 1 3.25-1.16 4.17 4.17 0 0 1 2.03.37v2.08a2.8 2.8 0 0 0-1.71-.57 2.26 2.26 0 0 0-1.68.61 2.3 2.3 0 0 0-.61 1.7 2.27 2.27 0 0 0 .59 1.66 2.17 2.17 0 0 0 1.62.6 3.24 3.24 0 0 0 1.8-.57z" class="cls-3" data-name="패스 8" transform="translate(-201.64 -239.28)"/>
      <path id="패스_9" d="M285.79 238.64h-8.97v-1.44l5.7-7.64h-5.29v-2.05h8.54v1.4l-5.58 7.7h5.6z" class="cls-2" data-name="패스 9" transform="translate(-230.74 -227.51)"/>
      <path id="패스_10" d="M329.91 250.6a4.27 4.27 0 0 1-3.12-1.1 4.6 4.6 0 0 1 .04-6.12 4.45 4.45 0 0 1 3.19-1.11 4.22 4.22 0 0 1 3.1 1.11 3.96 3.96 0 0 1 1.13 2.95 4.2 4.2 0 0 1-1.16 3.13 4.32 4.32 0 0 1-3.18 1.14zm.06-6.45a1.64 1.64 0 0 0-1.35.6 2.64 2.64 0 0 0-.48 1.69q0 2.29 1.85 2.29 1.76 0 1.76-2.35 0-2.23-1.78-2.23z" class="cls-3" data-name="패스 10" transform="translate(-269.67 -239.28)"/>
      <path id="패스_11" d="M383.65 250.41h-2.45V246q0-1.85-1.32-1.85a1.31 1.31 0 0 0-1.05.5 1.86 1.86 0 0 0-.4 1.23v4.54h-2.46v-7.95h2.45v1.25h.03a2.81 2.81 0 0 1 2.56-1.45q2.64 0 2.63 3.28z" class="cls-3" data-name="패스 11" transform="translate(-309.8 -239.28)"/>
      <path id="패스_12" d="M428.73 247.14h-5.18q.12 1.73 2.18 1.73a4.25 4.25 0 0 0 2.3-.63v1.77a6.06 6.06 0 0 1-2.87.6 3.7 3.7 0 0 1-4.05-4.05 4.25 4.25 0 0 1 1.15-3.13 3.83 3.83 0 0 1 2.83-1.16 3.48 3.48 0 0 1 2.69 1.03 3.97 3.97 0 0 1 .95 2.8zm-2.27-1.51q0-1.7-1.38-1.7a1.32 1.32 0 0 0-1.03.48 2.22 2.22 0 0 0-.52 1.22z" class="cls-3" data-name="패스 12" transform="translate(-345.8 -239.28)"/>
    </g>
  </g>
</svg>
